Coordinates
version=1
nRows=18
nColumns=22
inDegrees=yes

Units are S.I. units (second, meters, Newtons, ...)
If the header above contains a line with 'inDegrees', this indicates whether rotational values are in degrees (yes) or radians (no).

endheader
time	pelvis_tilt	pelvis_list	pelvis_rotation	pelvis_tx	pelvis_ty	pelvis_tz	hip_flexion_r	hip_adduction_r	hip_rotation_r	knee_angle_r	ankle_angle_r	subtalar_angle_r	hip_flexion_l	hip_adduction_l	hip_rotation_l	knee_angle_l	ankle_angle_l	subtalar_angle_l	lumbar_extension	lumbar_bending	lumbar_rotation
      0.01000000	      2.66384071	      3.78924586	    177.29778227	      0.09873091	      0.95399516	      1.05759880	      7.14782417	      5.50278251	     -3.89249765	    -14.29131451	     10.69123057	     -4.34145633	      9.86566379	     -7.61814760	     -4.73190810	    -21.89099331	     13.25405347	     -2.62544143	     -3.80444345	      2.72919836	     -0.48418031
      0.02000000	      2.67232234	      3.78752753	    177.30633537	      0.09877361	      0.95399124	      1.05762595	      7.14563334	      5.50022274	     -3.90576966	    -14.26488750	     10.68933977	     -4.34232207	      9.87242810	     -7.61573196	     -4.73495577	    -21.87531161	     13.24358937	     -2.62801983	     -3.78584824	      2.73086632	     -0.44798831
      0.03000000	      2.68669842	      3.78427569	    177.31154404	      0.09881458	      0.95398649	      1.05767285	      7.14983595	      5.49454143	     -3.91690274	    -14.23799249	     10.68036136	     -4.34316455	      9.88118155	     -7.60998314	     -4.74147213	    -21.85390655	     13.22246939	     -2.63121061	     -3.75813721	      2.73636340	     -0.41026953
      0.04000000	      2.70067203	      3.78120357	    177.32597960	      0.09887052	      0.95398052	      1.05771630	      7.15378673	      5.48905830	     -3.92898138	    -14.21121653	     10.67393792	     -4.34360797	      9.89384493	     -7.60607310	     -4.74547290	    -21.83258442	     13.20389711	     -2.63214876	     -3.73383431	      2.73684343	     -0.37227730
      0.05000000	      2.73147951	      3.77271097	    177.34051405	      0.09893315	      0.95395819	      1.05778638	      7.18027290	      5.47708318	     -3.93809220	    -14.19122937	     10.65095966	     -4.34430008	      9.92403712	     -7.59321007	     -4.74167036	    -21.80850386	     13.15819450	     -2.63449715	     -3.69185366	      2.73793559	     -0.34567870
      0.06000000	      2.74303008	      3.77041781	    177.36307550	      0.09898259	      0.95395335	      1.05785981	      7.17946606	      5.47044415	     -3.95734011	    -14.16256911	     10.65406707	     -4.34472428	      9.93858615	     -7.58756983	     -4.73819041	    -21.79356356	     13.15045126	     -2.63300570	     -3.67419237	      2.74074744	     -0.31151325
      0.07000000	      2.76769055	      3.76388471	    177.39990442	      0.09903665	      0.95393716	      1.05797703	      7.19536032	      5.45509810	     -3.99433229	    -14.13712282	     10.63890168	     -4.34262964	      9.96811708	     -7.57086355	     -4.70340129	    -21.77269527	     13.11650054	     -2.61815095	     -3.64401574	      2.74532666	     -0.31161672
      0.08000000	      2.77804930	      3.76101012	    177.42841402	      0.09908750	      0.95393292	      1.05807637	      7.19327764	      5.44570733	     -4.01779126	    -14.10820296	     10.64123885	     -4.34201449	      9.98457195	     -7.56220393	     -4.69210872	    -21.76126667	     13.11048653	     -2.61207936	     -3.63558567	      2.74889048	     -0.28652074
      0.09000000	      2.79142737	      3.75564667	    177.48332934	      0.09913285	      0.95392771	      1.05823831	      7.19535191	      5.42750433	     -4.07134101	    -14.08183471	     10.63056223	     -4.33823498	     10.00778752	     -7.54099534	     -4.63536864	    -21.74581482	     13.08700312	     -2.58512047	     -3.62449474	      2.75428406	     -0.30762687
      0.10000000	      2.79869017	      3.75346068	    177.54029453	      0.09919521	      0.95392387	      1.05838588	      7.19379642	      5.41417881	     -4.12602918	    -14.05868635	     10.62971034	     -4.33451722	     10.03002294	     -7.52610276	     -4.58349246	    -21.73777600	     13.07960895	     -2.55735939	     -3.62752441	      2.75701694	     -0.32258698
      0.11000000	      2.80288152	      3.75091872	    177.59448018	      0.09925207	      0.95392449	      1.05854190	      7.18890483	      5.40027329	     -4.17342561	    -14.03643796	     10.62762272	     -4.33165920	     10.04811376	     -7.50975110	     -4.53534863	    -21.73115613	     13.07099170	     -2.52923261	     -3.63718268	      2.75968067	     -0.33408001
      0.12000000	      2.80387536	      3.74909091	    177.65059353	      0.09931808	      0.95392532	      1.05870565	      7.18352532	      5.38635379	     -4.22288440	    -14.01860011	     10.62784422	     -4.33037453	     10.06501920	     -7.49372505	     -4.48615001	    -21.72689338	     13.06434585	     -2.49938554	     -3.65414352	      2.76276090	     -0.34601533
      0.13000000	      2.80355705	      3.74766008	    177.70647420	      0.09938239	      0.95392624	      1.05887892	      7.17915914	      5.37223055	     -4.27079406	    -14.00525042	     10.62829067	     -4.33045970	     10.08070238	     -7.47777273	     -4.43851267	    -21.72374656	     13.05756108	     -2.46745595	     -3.67443441	      2.76762450	     -0.35685944
      0.14000000	      2.80336426	      3.74758503	    177.75884872	      0.09945594	      0.95392669	      1.05903463	      7.17796480	      5.36139232	     -4.31550381	    -13.99571918	     10.62941874	     -4.33147792	     10.09679453	     -7.46552487	     -4.39630866	    -21.72088708	     13.05271303	     -2.43426354	     -3.69845754	      2.76873124	     -0.36391798
      0.15000000	      2.80340403	      3.74765148	    177.80801976	      0.09952772	      0.95392595	      1.05919924	      7.17902796	      5.35000272	     -4.35621130	    -13.99022187	     10.62997633	     -4.33294079	     10.11288743	     -7.45310451	     -4.35857889	    -21.71908214	     13.04633840	     -2.40110573	     -3.72280289	      2.77237315	     -0.36642730
      0.16000000	      2.80569324	      3.74790487	    177.84164764	      0.09960404	      0.95392201	      1.05933226	      7.18253407	      5.34215796	     -4.37393179	    -13.98337825	     10.62988013	     -4.33348882	     10.12966457	     -7.44596272	     -4.34225551	    -21.72037487	     13.04123779	     -2.38796539	     -3.74742215	      2.77230234	     -0.34727643
      0.17000000	      2.80657661	      3.74901594	    177.88532086	      0.09968187	      0.95392280	      1.05949064	      7.18915479	      5.33204633	     -4.41289312	    -13.98453688	     10.62760851	     -4.33456936	     10.14590086	     -7.43515389	     -4.30726164	    -21.71841589	     13.02589429	     -2.36069697	     -3.77427617	      2.77386129	     -0.34206066
      0.18000000	      2.81143468	      3.74875615	    177.93067669	      0.09974754	      0.95392296	      1.05965878	      7.19700745	      5.31969474	     -4.45831094	    -13.98205518	     10.62496296	     -4.33482784	     10.16369710	     -7.42187031	     -4.27041801	    -21.71034379	     13.01439558	     -2.32551264	     -3.79312753	      2.77653750	     -0.34856829
